# xmcd
#
# Track frame offsets:
#	150
#	15750
#	30995
#	44632
#	59375
#	74110
#	85287
#	103442
#	120157
#	135107
#
# Disc length: 2042 seconds
#
# Revision: 2
# Processed by: cddbd v1.5.1PL0 Copyright (c) Steve Scherf et al.
# Submitted via: MusicManager 7.2.0.0 
#
DISCID=7d07f80a
DTITLE=Highway 101 - Greatest Hits
DYEAR=1990
DGENRE=
TTITLE0=The Bed You Made For Me
TTITLE1=Who's Lonely Now
TTITLE2=Whiskey, If You Were A Woman
TTITLE3=Somewhere Tonight
TTITLE4=Someone Else's Trouble Now
TTITLE5=Cry, Cry, Cry
TTITLE6=This Side Of Goodbye
TTITLE7=(Do You Love Me) Just Say Yes
TTITLE8=Honky Tonk Heart
TTITLE9=The Change
EXTD=
EXTT0=
EXTT1=
EXTT2=
EXTT3=
EXTT4=
EXTT5=
EXTT6=
EXTT7=
EXTT8=
EXTT9=
PLAYORDER=
